<svg height="511pt" viewBox="1 -16 511.999 511" width="511pt" xmlns="http://www.w3.org/2000/svg"><path d="m347.113281 33.628906h-306.476562c-4.144531 0-7.5 3.359375-7.5 7.5v94.734375c0 4.140625 3.355469 7.5 7.5 7.5s7.5-3.359375 7.5-7.5v-87.234375h291.480469v382.605469h-291.480469v-265.324219c0-4.140625-3.355469-7.5-7.5-7.5s-7.5 3.359375-7.5 7.5v272.824219c0 4.140625 3.355469 7.5 7.5 7.5h306.480469c4.140624 0 7.5-3.359375 7.5-7.5v-397.605469c-.003907-4.140625-3.359376-7.5-7.503907-7.5zm0 0"/><path d="m504.5 133.03125h-.78125v-17.351562c0-4.140626-3.359375-7.5-7.5-7.5-4.144531 0-7.5 3.359374-7.5 7.5v17.351562h-18.132812v-17.351562c0-4.140626-3.359376-7.5-7.5-7.5-4.144532 0-7.5 3.359374-7.5 7.5v17.351562h-.785157c-4.140625 0-7.5 3.359375-7.5 7.5v49.699219c0 4.144531 3.359375 7.5 7.5 7.5h17.351563v158.167969c0 5-4.066406 9.066406-9.066406 9.066406s-9.066407-4.066406-9.066407-9.066406v-99.402344c0-13.269532-10.796875-24.066406-24.066406-24.066406h-9.070313v-9.0625c0-4.144532-3.355468-7.5-7.5-7.5h-25.632812v-174.734376c0-22.40625-18.226562-40.632812-40.632812-40.632812h-306.484376c-22.40625 0-40.632812 18.226562-40.632812 40.632812v397.597657c0 22.40625 18.226562 40.632812 40.632812 40.632812h306.484376c22.40625 0 40.632812-18.226562 40.632812-40.632812v-174.730469h25.632812c4.140626 0 7.5-3.359375 7.5-7.5v-9.070312h9.066407c5 0 9.070312 4.066406 9.070312 9.066406l-.003906 99.402344c0 13.269531 10.796875 24.066406 24.066406 24.066406s24.066407-10.796875 24.066407-24.066406v-158.167969h17.351562c4.140625 0 7.5-3.359375 7.5-7.5v-49.699219c0-4.140625-3.355469-7.5-7.5-7.5zm-157.382812 331.332031h-306.484376c-14.132812 0-25.632812-11.496093-25.632812-25.632812v-397.597657c0-14.136718 11.5-25.632812 25.632812-25.632812h306.484376c14.136718 0 25.632812 11.496094 25.632812 25.632812v182.214844.019532.015624 33.097657.019531.015625 182.214844c0 14.136719-11.496094 25.632812-25.632812 25.632812zm58.765624-215.363281h-18.132812v-18.132812h18.132812zm91.117188-66.269531h-34.699219v-34.699219h34.699219zm0 0"/><path d="m313.980469 98.332031c4.144531 0 7.5-3.359375 7.5-7.5v-16.566406c0-4.144531-3.355469-7.5-7.5-7.5h-16.5625c-4.144531 0-7.5 3.355469-7.5 7.5 0 4.140625 3.355469 7.5 7.5 7.5h9.0625v9.066406c0 4.140625 3.359375 7.5 7.5 7.5zm0 0"/><path d="m73.769531 98.332031c4.140625 0 7.5-3.359375 7.5-7.5v-9.066406h9.066407c4.140624 0 7.5-3.359375 7.5-7.5 0-4.144531-3.359376-7.5-7.5-7.5h-16.566407c-4.144531 0-7.5 3.355469-7.5 7.5v16.566406c0 4.140625 3.355469 7.5 7.5 7.5zm0 0"/><path d="m66.269531 405.597656c0 4.140625 3.355469 7.5 7.5 7.5h16.5625c4.144531 0 7.5-3.359375 7.5-7.5s-3.355469-7.5-7.5-7.5h-9.0625v-9.066406c0-4.144531-3.359375-7.5-7.5-7.5-4.144531 0-7.5 3.355469-7.5 7.5zm0 0"/><path d="m297.414062 413.097656h16.566407c4.144531 0 7.5-3.359375 7.5-7.5v-16.566406c0-4.144531-3.355469-7.5-7.5-7.5-4.140625 0-7.5 3.355469-7.5 7.5v9.066406h-9.066407c-4.140624 0-7.5 3.355469-7.5 7.5 0 4.140625 3.359376 7.5 7.5 7.5zm0 0"/><path d="m161.527344 239.929688c0 17.839843 14.511718 32.351562 32.347656 32.351562 17.839844 0 32.351562-14.511719 32.351562-32.351562 0-17.835938-14.511718-32.347657-32.351562-32.347657-17.835938 0-32.347656 14.511719-32.347656 32.347657zm32.347656-17.347657c9.566406 0 17.351562 7.785157 17.351562 17.351563s-7.785156 17.347656-17.351562 17.347656-17.347656-7.78125-17.347656-17.347656 7.78125-17.351563 17.347656-17.351563zm0 0"/><path d="m201.375 190.230469v-24.847657c0-4.144531-3.355469-7.5-7.5-7.5s-7.5 3.355469-7.5 7.5v24.847657c0 4.140625 3.355469 7.5 7.5 7.5s7.5-3.359375 7.5-7.5zm0 0"/><path d="m146.464844 181.914062c-2.929688-2.929687-7.679688-2.929687-10.605469 0-2.929687 2.929688-2.929687 7.675782-.003906 10.609376l17.570312 17.570312c1.464844 1.464844 3.386719 2.195312 5.304688 2.195312s3.839843-.730468 5.304687-2.195312c2.929688-2.929688 2.929688-7.679688 0-10.609375zm0 0"/><path d="m111.824219 239.933594c0 4.140625 3.359375 7.5 7.5 7.5h24.851562c4.140625 0 7.5-3.359375 7.5-7.5 0-4.144532-3.359375-7.5-7.5-7.5h-24.851562c-4.140625 0-7.5 3.355468-7.5 7.5zm0 0"/><path d="m153.429688 269.773438-17.570313 17.570312c-2.929687 2.929688-2.929687 7.679688 0 10.605469 1.464844 1.464843 3.382813 2.199219 5.304687 2.199219 1.917969 0 3.839844-.734376 5.304688-2.199219l17.566406-17.570313c2.929688-2.925781 2.929688-7.675781 0-10.605468-2.929687-2.929688-7.675781-2.929688-10.605468 0zm0 0"/><path d="m186.378906 289.632812v24.851563c0 4.140625 3.355469 7.5 7.5 7.5 4.140625 0 7.5-3.359375 7.5-7.5v-24.851563c0-4.140624-3.359375-7.5-7.5-7.5-4.144531 0-7.5 3.359376-7.5 7.5zm0 0"/><path d="m223.71875 269.773438c-2.929688 2.929687-2.929688 7.675781 0 10.605468l17.570312 17.570313c1.464844 1.464843 3.386719 2.199219 5.304688 2.199219s3.839844-.734376 5.304688-2.199219c2.925781-2.925781 2.925781-7.675781-.003907-10.605469l-17.570312-17.570312c-2.929688-2.929688-7.675781-2.929688-10.605469 0zm0 0"/><path d="m275.925781 239.929688c0-4.140626-3.355469-7.5-7.5-7.5h-24.847656c-4.144531 0-7.5 3.359374-7.5 7.5 0 4.144531 3.355469 7.5 7.5 7.5h24.847656c4.144531 0 7.5-3.355469 7.5-7.5zm0 0"/><path d="m241.285156 181.914062-17.566406 17.570313c-2.933594 2.929687-2.933594 7.675781-.003906 10.605469 1.464844 1.464844 3.386718 2.195312 5.304687 2.195312s3.839844-.730468 5.304688-2.195312l17.570312-17.570313c2.929688-2.929687 2.929688-7.679687 0-10.605469-2.929687-2.929687-7.675781-2.929687-10.609375 0zm0 0"/></svg>